<svg height="512" viewBox="0 0 60 45" width="512" xmlns="http://www.w3.org/2000/svg"><g id="040---Bullet-Train" fill="none"><g id="Color" transform="translate(1 1)"><path id="Rectangle-path" d="m0 39.01h58v4h-58z" fill="#e8edfc"/><path id="Rectangle-path" d="m55 39.01h3v4h-3z" fill="#cad9fc"/><circle id="Oval" cx="10.5" cy="35.51" fill="#e8edfc" r="3.5"/><circle id="Oval" cx="17.5" cy="35.51" fill="#e8edfc" r="3.5"/><circle id="Oval" cx="28.5" cy="35.51" fill="#e8edfc" r="3.5"/><circle id="Oval" cx="35.5" cy="35.51" fill="#e8edfc" r="3.5"/><path id="Shape" d="m38.66 34c-.3938464-.8416043-1.1087791-1.4900893-1.9846931-1.8002305-.8759139-.3101412-1.8396219-.2560247-2.6753069.1502305 1.2131279.5826273 1.9847525 1.8092162 1.9847525 3.155s-.7716246 2.5723727-1.9847525 3.155c1.3367001.6451013 2.935186.3741967 3.9846914-.6753086 1.0495053-1.0495054 1.3204099-2.6479913.6753086-3.9846914z" fill="#cad9fc"/><path id="Shape" d="m58 25c.1323929 3.351461-1.8399032 6.4296803-4.94 7.71l-2.53 1.06c-.74.31-.55.23-7.52.23 0-3.3137085-2.6862915-6-6-6h-27.01c-3.3137085 0-6 2.6862915-6 6h-4v-11h25.38c.3483719.002433.672901-.1766148.8566239-.4726128.1837229-.2959979.2001558-.6662778.0433761-.9773872l-1-2c-.1710655-.3395038-.5198431-.5526457-.9-.55h-24.38v-4h21.38c.3483719.002433.672901-.1766148.8566239-.4726128.1837229-.2959979.2001558-.6662778.0433761-.9773872l-2-4c-.1710655-.3395038-.5198431-.55264567-.9-.55h-19.38v-5h20c7.5933754-.09512445 15.1003089 1.61878732 21.9 5h-13.9c-.3585025.00995469-.6842225.21112958-.8536376.52723344-.1694151.31610387-.1565801.69872646.0336376 1.00276656l2.53 4c.1842809.2726604.4909175.4371971.82.44h20.38c2.134048 1.7957311 4.0776202 3.806323 5.8 6h-2.71c-.5522847 0-1 .4477153-1 1v2c0 .2652165.1053568.5195704.2928932.7071068s.4418903.2928932.7071068.2928932z" fill="#e8edfc"/><path id="Shape" d="m53.71 21h-2.71c-.5522847 0-1 .4477153-1 1v2c0 .5522847.4477153 1 1 1h3c-.5522847 0-1-.4477153-1-1v-2c0-.5522847.4477153-1 1-1h2.74c-1.7196188-2.1960826-3.6634542-4.2069468-5.8-6h-3c2.1235837 1.7972833 4.0570519 3.8078222 5.77 6z" fill="#cad9fc"/><path id="Shape" d="m38.9 9h3c-6.7996911-3.38121268-14.3066246-5.09512445-21.9-5h-3c7.5933754-.09512445 15.1003089 1.61878732 21.9 5z" fill="#cad9fc"/><path id="Shape" d="m55 25c.1323929 3.351461-1.8399032 6.4296803-4.94 7.71l-2.53 1.06c-.3658252.1470779-.7557468.2250622-1.15.23 4.3 0 2.94.27 6.68-1.29 3.1000968-1.2803197 5.0723929-4.358539 4.94-7.71z" fill="#cad9fc"/><g fill="#e8edfc"><path id="Shape" d="m34.68 15h-4.15c-.3290825-.0028029-.6357191-.1673396-.82-.44l-2.53-4c-.2063335-.3052318-.228118-.69919432-.0566959-1.02531451.1714222-.32612019.5082801-.5315655.8766959-.53468549h3z"/><path id="Shape" d="m50.91 15h-16.23l-3.68-6h10.9c3.2381289 1.6227586 6.2642125 3.6379086 9.01 6z"/><path id="Shape" d="m41.9 9h-3c3.2342281 1.6241668 6.2568352 3.6392383 9 6h3c-2.7426751-2.3614068-5.7653649-4.3765333-9-6z"/><path id="Shape" d="m58 25h-4c-.5522847 0-1-.4477153-1-1v-2c0-.5522847.4477153-1 1-1h2.74c.7839209 1.1901616 1.2202762 2.5754164 1.26 4z"/><path id="Shape" d="m43 34h-4.34c-.7037137-1.4777787-2.3376411-2.2704989-3.9339055-1.9085831s-2.7285337 1.7818067-2.7260945 3.4185831c.0024392-1.6367764-1.1298301-3.0566673-2.7260945-3.4185831s-3.2301918.4308044-3.9339055 1.9085831c-5 0-4.23 0-4.62.13-.6524301-1.5315631-2.2933598-2.3916412-3.9240676-2.0567638-1.6307077.3348775-2.7998844 1.7720311-2.7959324 3.4367638.0024392-1.6367764-1.1298301-3.0566673-2.7260945-3.4185831-1.59626439-.3619158-3.23019179.4308044-3.9339055 1.9085831h-3.34c0-3.3137085 2.6862915-6 6-6h27c3.3137085 0 6 2.6862915 6 6z"/></g><path id="Shape" d="m20.72 34.14.28-.14h-.35s.05.09.07.14z" fill="#cad9fc"/><path id="Shape" d="m37 28h-3c3.3137085 0 6 2.6862915 6 6h3c0-3.3137085-2.6862915-6-6-6z" fill="#cad9fc"/><path id="Shape" d="m18 1v3h-14v-3c0-.55228475.44771525-1 1-1h12c.5522847 0 1 .44771525 1 1z" fill="#e8edfc"/><path id="Shape" d="m17 0h-3c.5522847 0 1 .44771525 1 1v3h3v-3c0-.55228475-.4477153-1-1-1z" fill="#cad9fc"/><path id="Shape" d="m21.38 15-21.38.0000245v-6.00004885l19.38.00002435c.3801569-.00264567.7289345.2104962.9.55l2 4c.1567797.3111094.1403468.6813893-.0433761.9773872-.1837229.295998-.508252.4750458-.8566239.4726128z" fill="#e8edfc"/><path id="Shape" d="m22.28 13.56-2-4c-.1710655-.3395038-.5198431-.55264567-.9-.55l-3-.00002435c.3801569-.00262132.7289345.21052055.9.55002435l2 4c.1567797.3111094.1403468.6813893-.0433761.9773872-.1837229.295998-.508252.4750458-.8566239.4726128h3c.3483719.002433.672901-.1766148.8566239-.4726128.1837229-.2959979.2001558-.6662778.0433761-.9773872z" fill="#cad9fc"/><path id="Shape" d="m25.38 23-25.38.0000245v-4.0000488l24.38.0000243c.3801569-.0026457.7289345.2104962.9.55l1 2c.1567797.3111094.1403468.6813893-.0433761.9773872-.1837229.295998-.508252.4750458-.8566239.4726128z" fill="#e8edfc"/><path id="Shape" d="m26.28 21.56-1-2c-.1710655-.3395038-.5198431-.5526457-.9-.55l-3-.0000243c.3801569-.0026214.7289345.2105205.9.5500243l1 2c.1567797.3111094.1403468.6813893-.0433761.9773872-.1837229.295998-.508252.4750458-.8566239.4726128h3c.3483719.002433.672901-.1766148.8566239-.4726128.1837229-.2959979.2001558-.6662778.0433761-.9773872z" fill="#cad9fc"/><path id="Shape" d="m54 39h-8l-3-5c6.9 0 6.59 0 7-.07v.07c2 0 4 5 4 5z" fill="#e8edfc"/><path id="Shape" d="m50 34v-.07c-.9943175.1344166-2.0004953.157894-3 .07 2 0 4 5 4 5h3s-2-5-4-5z" fill="#cad9fc"/></g><g id="Whites" fill="#fff" transform="translate(1 1)"><path id="Shape" d="m4 1v3h3v-3c0-.55228475.44771525-1 1-1h-3c-.55228475 0-1 .44771525-1 1z"/><path id="Shape" d="m0 34h3v-30h-3z"/><path id="Shape" d="m3 39h-3v4h3z"/></g><path id="Rectangle-path" d="m0 27.01h2v8h-2z" fill="#fff"/><g fill="#428dff"><path id="Shape" d="m1 32c-.55228475 0-1-.4477153-1-1s.44771525-1 1-1 1 .4477153 1 1-.44771525 1-1 1z"/><path id="Shape" d="m59 39h-3.34c-.5831033-1.4162638-1.4050437-2.7218975-2.43-3.86l1.21-.5c2.6402027-1.1010709 4.599736-3.3916898 5.278663-6.1705539s-.0036173-5.7149907-1.838663-7.9094461c-6.44-7.56-18.07-16.56-36.88-16.56h-1v-2c0-1.1045695-.8954305-2-2-2h-12c-1.1045695 0-2 .8954305-2 2v2h-3c-.55228475 0-1 .44771525-1 1v22c0 .5522847.44771525 1 1 1s1-.4477153 1-1v-2h24.38c.6949663.0013708 1.3408226-.3581258 1.7058495-.9495102.3650268-.5913843.3968873-1.3298645.0841505-1.9504898l-1-2c-.3405222-.6757726-1.0332823-1.1014911-1.79-1.1h-23.38v-2h20.38c.6949663.0013708 1.3408226-.3581258 1.7058495-.9495102.3650268-.5913843.3968873-1.3298645.0841505-1.9504898-2.23-4.45-1.93-3.9-2-4-.3405222-.67577258-1.0332823-1.10149109-1.79-1.1h-18.38v-3h19c5.8677154-.05004189 11.6956988.96646685 17.2 3h-9.2c-.7223918.00935234-1.3835883.40756776-1.7296813 1.0417262-.346093.6341585-.323279 1.4056738.0596813 2.0182738l2.54 4.05c.370262.554962.9928604.8887648 1.66.89h20c1.4412236 1.2444764 2.8007101 2.5805811 4.07 4h-.6c-1.1045695 0-2 .8954305-2 2v2c0 .530433.2107137 1.0391408.5857864 1.4142136.3750728.3750727.8837806.5857864 1.4142136.5857864h3c-.2504682 2.5743598-1.9001139 4.8008047-4.29 5.79l-2.53 1.05c-.53.22-.6.16-6.22.16-.4987923-3.4559891-3.4682378-6.0158559-6.96-6h-27c-3.47658218.0040745-6.42334745 2.5590733-6.92 6h-3.08c-.55228475 0-1 .4477153-1 1v9c0 .5522847.44771525 1 1 1h58c.5522847 0 1-.4477153 1-1v-4c0-.5522847-.4477153-1-1-1zm-33.62-18 1 2h-24.38v-2zm-5-10 2 4h-20.38v-4zm-2.38-7h-12v-2h12zm13.55 11-2.55-4h2.44l2.47 4zm4.71 0-2.48-4h8.91c2.2480182 1.1459912 4.3926806 2.484314 6.41 4zm18.74 10v-2h2.18c.3487888.6223365.5920817 1.2981501.72 2zm-4.21 11c.0696959.0092274.1403041.0092274.21 0 .55 0 1.58 1.31 2.45 3h-5.88l-1.8-3zm-7.36 0 1.8 3h-5c.4955736-.7395615.760111-1.6097503.76-2.5.0104269-.1665036.0104269-.3334964 0-.5zm-32.43-6h27c2.3763431-.000485 4.4247314 1.6716687 4.9 4h-2.66c-.7943259-1.1930579-2.1115491-1.9340261-3.5436174-1.993366-1.4320683-.0593398-2.806077.5701133-3.6963826 1.693366-.8903056-1.1232527-2.2643143-1.7527058-3.6963826-1.693366-1.4320683.0593399-2.7492915.8003081-3.5436174 1.993366h-3.52c-.7943259-1.1930579-2.1115491-1.9340261-3.5436174-1.993366-1.4320683-.0593398-2.806077.5701133-3.6963826 1.693366-.8903056-1.1232527-2.2643143-1.7527058-3.6963826-1.693366-1.43206825.0593399-2.74929149.8003081-3.5436174 1.993366h-1.66c.47526858-2.3283313 2.52365691-4.000485 4.9-4zm28 6.5c0 1.3807119-1.1192881 2.5-2.5 2.5s-2.5-1.1192881-2.5-2.5 1.1192881-2.5 2.5-2.5c1.3823279.0055073 2.500011 1.1276611 2.5 2.51zm-7 0c0 1.3807119-1.1192881 2.5-2.5 2.5s-2.5-1.1192881-2.5-2.5 1.1192881-2.5 2.5-2.5c1.3823279.0055073 2.500011 1.1276611 2.5 2.51zm-9-.5h2.1c-.0271292.1654541-.0438288.3324501-.05.5-.000111.8902497.2644264 1.7604385.76 2.5h-3.57c.4955736-.7395615.760111-1.6097503.76-2.5.0104269-.1665036.0104269-.3334964 0-.5zm-1.95.5c-.0002749 1.3741421-1.1095528 2.4904683-2.4836656 2.4994466-1.3741129.0089783-2.4978833-1.0927575-2.5161143-2.4667787-.018231-1.3740213 1.0759126-2.505185 2.4497799-2.5326679 1.3823279.0055073 2.500011 1.1276611 2.5 2.51zm-7 0c-.0002749 1.3741421-1.1095528 2.4904683-2.4836656 2.4994466-1.3741129.0089783-2.49788334-1.0927575-2.51611432-2.4667787-.01823098-1.3740213 1.07591262-2.505185 2.44977992-2.5326679 1.3823279.0055073 2.500011 1.1276611 2.5 2.51zm-7-.5c-.01042686.1665036-.01042686.3334964 0 .5-.01495267.8851031.23206324 1.7548775.71 2.5h-5.76v-3zm51 7h-56.05v-2h56z"/></g></g></svg>